<?xml version="1.0" encoding="utf-8"?>
<!-- Generator: Adobe Illustrator 15.0.2, SVG Export Plug-In . SVG Version: 6.00 Build 0)  -->
<!DOCTYPE svg PUBLIC "-//W3C//DTD SVG 1.1//EN" "http://www.w3.org/Graphics/SVG/1.1/DTD/svg11.dtd">
<svg version="1.1" id="Your_Icon" xmlns="http://www.w3.org/2000/svg" xmlns:xlink="http://www.w3.org/1999/xlink" x="0px" y="0px"
	 width="79px" height="61.667px" viewBox="12 3.5 79 61.667" enable-background="new 12 3.5 79 61.667" xml:space="preserve">
<path d="M14.259,19.847v40.741c0,1.018,0.833,1.852,1.852,1.852h8.657V17.995h-8.657C15.093,17.995,14.259,18.828,14.259,19.847z"/>
<path d="M86.481,17.995h-8.657v44.445h8.657c1.019,0,1.853-0.834,1.853-1.852V19.847C88.334,18.828,87.5,17.995,86.481,17.995z"/>
<path d="M68.168,8.302c0-1.019-0.833-1.852-1.852-1.852h-30.04c-1.019,0-1.852,0.833-1.852,1.852v9.694h-7.479v44.444h48.702V17.996
	h-7.479V8.302z M63.101,17.995H39.492v-6.479h23.609V17.995z"/>
</svg>
